<svg width="171" height="42" viewBox="0 0 171 42" fill="none"
    xmlns="http://www.w3.org/2000/svg">
    <path d="M146.028 6.76574C145.48 5.93651 143.111 3.84459 143.316 4.84074C143.39 5.2042 144.292 5.10997 145.409 7.12382C146.85 9.7192 146.911 11.418 146.507 14.1561C145.861 18.5338 142.058 20.8223 138.106 19.8961C135.383 19.258 133.545 16.073 134.356 13.3969C134.954 11.4261 136.646 10.6561 138.507 11.5419C139.111 11.83 139.882 12.0965 139.874 12.8988C139.866 13.728 139.364 14.3984 138.667 14.8615C137.736 15.478 137.696 13.4992 137.212 14.0242C136.63 14.6596 138.111 16.913 139.787 16.0273C141.148 15.3084 142.063 14.0807 142.098 12.4654C142.132 10.8823 140.8 10.4704 139.648 10.0019C138.643 9.59266 137.6 9.35574 136.492 9.47689C135.005 9.64112 134.002 10.3196 133.431 11.7788C132.311 14.6273 133.143 17.788 135.343 19.7373C138.678 22.6988 142.278 22.6073 145.366 19.9904C149.334 16.6304 149.036 11.3292 146.031 6.76843L146.028 6.76574Z" fill="#ED2324" />
    <path d="M8.35587 36.8846C7.29743 36.8846 6.30813 36.7284 5.39063 36.4161C4.47048 36.1038 3.75776 35.708 3.25513 35.2288L3.81626 34.2407C4.30559 34.6688 4.95449 35.035 5.76827 35.3392C6.58205 35.6434 7.45965 35.7969 8.4064 35.7969C9.74143 35.7969 10.7015 35.5734 11.2865 35.1292C11.8716 34.685 12.1668 34.1007 12.1668 33.3738C12.1668 32.8461 12.0152 32.4315 11.7147 32.1246C11.4142 31.8204 11.01 31.5861 10.5073 31.4192C10.002 31.255 9.44889 31.1177 8.84786 31.0127C8.24418 30.905 7.64315 30.7865 7.04213 30.6546C6.4411 30.5227 5.88528 30.3342 5.38265 30.0865C4.87737 29.8388 4.4758 29.4969 4.17528 29.0607C3.87477 28.6246 3.72318 28.043 3.72318 27.3188C3.72318 26.6592 3.90136 26.0669 4.26038 25.5392C4.6194 25.0115 5.15395 24.5888 5.87199 24.2657C6.58737 23.9454 7.48359 23.7838 8.55799 23.7838C9.35581 23.7838 10.1563 23.8996 10.9621 24.1311C11.7679 24.3627 12.4221 24.6669 12.9274 25.0465L12.3663 26.0346C11.8291 25.6227 11.228 25.3265 10.5605 25.1461C9.89301 24.9657 9.21752 24.8742 8.53405 24.8742C7.29743 24.8742 6.39057 25.1057 5.81082 25.5661C5.23373 26.0265 4.94385 26.6027 4.94385 27.2973C4.94385 27.8411 5.09544 28.2746 5.39595 28.595C5.69646 28.9154 6.10069 29.163 6.60332 29.3354C7.10861 29.5077 7.66177 29.6477 8.26279 29.7554C8.86382 29.863 9.46751 29.9815 10.0685 30.1134C10.6696 30.2454 11.2227 30.4311 11.728 30.668C12.2333 30.9077 12.6349 31.2361 12.9354 31.6561C13.2359 32.0761 13.3875 32.6415 13.3875 33.3496C13.3875 34.0577 13.196 34.6769 12.813 35.2019C12.4301 35.7296 11.8663 36.1415 11.1163 36.4377C10.3664 36.7338 9.44889 36.8819 8.35853 36.8819L8.35587 36.8846Z" fill="#ffffff" />
    <path d="M23.4507 36.8846C22.23 36.8846 21.1449 36.6046 20.1902 36.0446C19.2381 35.4846 18.4802 34.7092 17.9191 33.7211C17.3579 32.733 17.076 31.605 17.076 30.3342C17.076 29.0634 17.3553 27.9165 17.9191 26.9365C18.4802 25.9565 19.2381 25.1865 20.1902 24.6265C21.1423 24.0665 22.2273 23.7865 23.4507 23.7865C24.674 23.7865 25.7617 24.0665 26.7217 24.6265C27.6818 25.1865 28.4397 25.9565 28.9929 26.9365C29.546 27.9165 29.8226 29.05 29.8226 30.3342C29.8226 31.6184 29.546 32.733 28.9929 33.7211C28.4397 34.7092 27.6818 35.4846 26.7217 36.0446C25.7617 36.6046 24.6713 36.8846 23.4507 36.8846ZM23.4507 35.7727C24.4267 35.7727 25.3069 35.5465 26.0861 35.0942C26.868 34.6419 27.477 34.0038 27.9158 33.18C28.3546 32.3561 28.5753 31.4084 28.5753 30.3369C28.5753 29.2653 28.3546 28.2988 27.9158 27.483C27.477 26.6673 26.8653 26.0346 26.0861 25.5796C25.3043 25.1273 24.4267 24.9011 23.4507 24.9011C22.4747 24.9011 21.5997 25.1273 20.8258 25.5796C20.0519 26.0319 19.4429 26.6673 18.9961 27.483C18.5494 28.2988 18.326 29.2492 18.326 30.3369C18.326 31.4246 18.5494 32.3561 18.9961 33.18C19.4429 34.0038 20.0546 34.6419 20.8258 35.0942C21.5997 35.5465 22.4747 35.7727 23.4507 35.7727Z" fill="#ffffff" />
    <path d="M40.2741 36.8846C39.0375 36.8846 37.9338 36.6046 36.9658 36.0446C35.9978 35.4846 35.2319 34.7092 34.6707 33.7211C34.1096 32.733 33.8277 31.605 33.8277 30.3342C33.8277 29.0634 34.1069 27.9138 34.6707 26.923C35.2345 25.9323 35.9978 25.165 36.9658 24.613C37.9338 24.0611 39.0375 23.7838 40.2741 23.7838C41.298 23.7838 42.2314 23.9804 43.0691 24.3761C43.9069 24.7719 44.5877 25.3642 45.1063 26.1557L44.2021 26.8234C43.7473 26.1638 43.1782 25.6792 42.4921 25.3642C41.8086 25.0519 41.0666 24.8957 40.2714 24.8957C39.2795 24.8957 38.3859 25.1219 37.5987 25.5742C36.8089 26.0265 36.1893 26.6619 35.7425 27.4777C35.2957 28.2934 35.0723 29.2438 35.0723 30.3315C35.0723 31.4192 35.2957 32.3696 35.7425 33.1854C36.1893 34.0011 36.8089 34.6365 37.5987 35.0888C38.3886 35.5411 39.2795 35.7673 40.2714 35.7673C41.0693 35.7673 41.8086 35.6111 42.4921 35.2988C43.1755 34.9865 43.7446 34.4992 44.2021 33.8396L45.1063 34.5073C44.585 35.2988 43.9069 35.8911 43.0691 36.2869C42.2314 36.6827 41.298 36.8792 40.2741 36.8792V36.8846Z" fill="#ffffff" />
    <path d="M50.2708 20.747C49.9942 20.747 49.7575 20.6474 49.5634 20.4508C49.3693 20.2543 49.2709 20.0227 49.2709 19.7589C49.2709 19.4789 49.3693 19.2393 49.5634 19.0427C49.7575 18.8462 49.9942 18.7466 50.2708 18.7466C50.5633 18.7466 50.8027 18.8408 50.9915 19.0293C51.1777 19.2177 51.2707 19.4547 51.2707 19.7347C51.2707 20.0147 51.1777 20.2543 50.9915 20.4508C50.8054 20.6474 50.5633 20.747 50.2708 20.747ZM49.6591 36.785V23.8835H50.8798V36.785H49.6591Z" fill="#ffffff" />
    <path d="M60.3872 36.8846C59.4431 36.8846 58.624 36.7311 57.9326 36.4269C57.2412 36.1226 56.7119 35.6892 56.3449 35.1292C55.9779 34.5692 55.7944 33.9257 55.7944 33.2015C55.7944 32.5419 55.946 31.9442 56.2465 31.4111C56.547 30.8753 57.047 30.4392 57.7491 30.1C58.4485 29.7634 59.3846 29.5938 60.5574 29.5938H65.2433V30.5576H60.5814C59.2623 30.5576 58.3395 30.8053 57.8103 31.298C57.281 31.7934 57.0178 32.41 57.0178 33.1503C57.0178 33.9742 57.3263 34.6338 57.9459 35.1265C58.5629 35.6219 59.4352 35.8669 60.5574 35.8669C61.6797 35.8669 62.5387 35.6192 63.2807 35.1265C64.02 34.6311 64.5705 33.915 64.9295 32.9753L65.2726 33.8153C64.9295 34.755 64.3498 35.5007 63.528 36.0526C62.7062 36.6046 61.6611 36.8819 60.3899 36.8819L60.3872 36.8846ZM64.9774 36.785V33.845L64.9295 33.4007V28.5573C64.9295 27.3538 64.6077 26.4411 63.9641 25.8138C63.3206 25.1892 62.3818 24.8742 61.1452 24.8742C60.2649 24.8742 59.4485 25.0276 58.6905 25.3319C57.9326 25.6361 57.2864 26.0292 56.7492 26.5057L56.1375 25.6173C56.7731 25.0411 57.5363 24.5915 58.4326 24.2711C59.3261 23.9507 60.2622 23.7892 61.2409 23.7892C62.8206 23.7892 64.0306 24.193 64.879 25.0007C65.7273 25.8084 66.1475 27.0119 66.1475 28.6084V36.7876H64.9747L64.9774 36.785Z" fill="#ffffff" />
    <path d="M72.0461 36.7849V18.4476H73.2667V36.7849H72.0461Z" fill="#ffffff" />
    <path d="M93.0873 36.8846C91.8666 36.8846 90.7816 36.6046 89.8268 36.0446C88.8748 35.4846 88.1168 34.7092 87.5557 33.7211C86.9946 32.733 86.7127 31.605 86.7127 30.3342C86.7127 29.0634 86.9919 27.9165 87.5557 26.9365C88.1168 25.9565 88.8748 25.1865 89.8268 24.6265C90.7789 24.0665 91.864 23.7865 93.0873 23.7865C94.3106 23.7865 95.3983 24.0665 96.3583 24.6265C97.3184 25.1865 98.0763 25.9565 98.6295 26.9365C99.1826 27.9165 99.4592 29.05 99.4592 30.3342C99.4592 31.6184 99.1826 32.733 98.6295 33.7211C98.0763 34.7092 97.3184 35.4846 96.3583 36.0446C95.3983 36.6046 94.3079 36.8846 93.0873 36.8846ZM93.0873 35.7727C94.0633 35.7727 94.9435 35.5465 95.7228 35.0942C96.5046 34.6419 97.1136 34.0038 97.5524 33.18C97.9912 32.3561 98.212 31.4084 98.212 30.3369C98.212 29.2653 97.9912 28.2988 97.5524 27.483C97.1136 26.6673 96.502 26.0346 95.7228 25.5796C94.9409 25.1273 94.0633 24.9011 93.0873 24.9011C92.1113 24.9011 91.2363 25.1273 90.4624 25.5796C89.6886 26.0319 89.0796 26.6673 88.6328 27.483C88.186 28.2988 87.9626 29.2492 87.9626 30.3369C87.9626 31.4246 88.186 32.3561 88.6328 33.18C89.0796 34.0038 89.6912 34.6419 90.4624 35.0942C91.2363 35.5465 92.1113 35.7727 93.0873 35.7727Z" fill="#ffffff" />
    <path d="M108.932 36.8846C107.842 36.8846 106.898 36.6827 106.1 36.2788C105.302 35.875 104.688 35.2665 104.257 34.4507C103.826 33.635 103.611 32.6254 103.611 31.4219V23.8834H104.831V31.3223C104.831 32.7707 105.198 33.8773 105.93 34.6338C106.661 35.393 107.695 35.77 109.03 35.77C109.99 35.77 110.82 35.5627 111.52 35.1507C112.219 34.7388 112.756 34.16 113.131 33.4088C113.506 32.6577 113.692 31.7746 113.692 30.7515V23.8807H114.913V36.7823H113.74V33.1988L113.91 33.6188C113.535 34.623 112.913 35.42 112.044 36.0042C111.171 36.5884 110.134 36.8819 108.932 36.8819V36.8846Z" fill="#ffffff" />
    <path d="M118.533 24.9469V23.8834H126.149V24.9469H118.533ZM124.343 36.8846C123.221 36.8846 122.362 36.5723 121.769 35.945C121.176 35.3203 120.878 34.4615 120.878 33.3738V21.0673H122.099V33.2526C122.099 34.0765 122.304 34.7119 122.71 35.1561C123.117 35.6003 123.702 35.8238 124.468 35.8238C125.234 35.8238 125.926 35.5842 126.447 35.1076L126.96 35.9719C126.633 36.2842 126.24 36.5157 125.777 36.6638C125.314 36.8119 124.838 36.8873 124.349 36.8873L124.343 36.8846Z" fill="#ffffff" />
    <path d="M130.691 36.7849V18.4476H131.912V36.7849H130.691Z" fill="#ffffff" />
    <path d="M137.696 36.785V23.8834H138.917V36.785H137.696Z" fill="#ffffff" />
    <path d="M150.238 36.8846C148.953 36.8846 147.818 36.6046 146.834 36.0446C145.85 35.4846 145.076 34.7092 144.515 33.7211C143.954 32.733 143.672 31.605 143.672 30.3342C143.672 29.0634 143.935 27.9165 144.464 26.9365C144.994 25.9565 145.722 25.1865 146.65 24.6265C147.579 24.0665 148.618 23.7865 149.775 23.7865C150.932 23.7865 151.969 24.0584 152.887 24.6023C153.807 25.1461 154.53 25.908 155.059 26.888C155.589 27.868 155.852 29.0015 155.852 30.2857C155.852 30.3342 155.847 30.388 155.839 30.4473C155.831 30.5065 155.825 30.5684 155.825 30.633H144.571V29.6692H155.166L154.677 30.1377C154.692 29.1334 154.485 28.2315 154.054 27.4319C153.623 26.6323 153.041 26.0077 152.31 25.5527C151.578 25.1003 150.73 24.8742 149.77 24.8742C148.81 24.8742 147.983 25.1003 147.243 25.5527C146.502 26.005 145.922 26.6323 145.499 27.4319C145.076 28.2315 144.863 29.1415 144.863 30.1619V30.3853C144.863 31.4407 145.095 32.375 145.56 33.1907C146.023 34.0065 146.661 34.6419 147.478 35.0942C148.291 35.5465 149.219 35.7727 150.259 35.7727C151.073 35.7727 151.834 35.6246 152.541 35.3284C153.248 35.0323 153.847 34.58 154.336 33.9688L155.044 34.7846C154.49 35.4765 153.794 35.9988 152.956 36.3542C152.118 36.7096 151.211 36.8846 150.233 36.8846H150.238Z" fill="#ffffff" />
    <path d="M160.535 36.785V23.8834H161.708V27.4184L161.586 27.0227C161.945 25.9861 162.546 25.1865 163.391 24.6265C164.237 24.0665 165.296 23.7865 166.564 23.7865V24.998C166.516 24.998 166.466 24.9953 166.418 24.9846C166.37 24.9765 166.319 24.9738 166.272 24.9738C164.857 24.9738 163.748 25.4234 162.953 26.32C162.155 27.2192 161.756 28.4657 161.756 30.065V36.7877H160.535V36.785Z" fill="#ffffff" />
</svg>