<?xml version="1.0" standalone="no"?>
<!DOCTYPE svg PUBLIC "-//W3C//DTD SVG 20010904//EN"
 "http://www.w3.org/TR/2001/REC-SVG-20010904/DTD/svg10.dtd">
<svg version="1.0" xmlns="http://www.w3.org/2000/svg"
 width="700.000000pt" height="700.000000pt" viewBox="0 0 700.000000 700.000000"
 preserveAspectRatio="xMidYMid meet">
<metadata>
Created by potrace 1.14, written by Peter Selinger 2001-2017
</metadata>
<g transform="translate(0.000000,700.000000) scale(0.100000,-0.100000)"
fill="#000000" stroke="none">
<path d="M4552 6942 c-7 -5 -15 -25 -18 -44 -10 -58 16 -97 103 -153 43 -27
83 -52 88 -54 8 -4 83 -57 134 -96 50 -38 229 -224 283 -295 59 -77 198 -283
198 -294 0 -2 21 -40 46 -83 69 -115 225 -439 282 -583 88 -222 160 -470 188
-648 3 -20 7 -39 9 -42 2 -3 6 -37 10 -75 4 -39 9 -72 10 -75 2 -3 7 -53 11
-110 13 -195 8 -512 -11 -715 -13 -133 -49 -424 -59 -480 -2 -11 -7 -45 -11
-75 -3 -30 -10 -71 -15 -90 -5 -19 -11 -48 -13 -65 -9 -56 -38 -166 -73 -282
-250 -825 -857 -1467 -1648 -1743 -86 -30 -279 -83 -341 -95 -131 -24 -243
-41 -345 -52 -65 -7 -415 -6 -485 1 -375 39 -612 99 -850 216 -320 158 -619
423 -822 732 -167 255 -287 551 -339 840 -34 195 -37 494 -4 643 5 22 11 56
14 75 9 57 59 218 91 295 124 293 311 506 552 628 58 30 180 72 233 82 105 19
144 23 230 23 220 0 387 -45 687 -182 253 -116 368 -204 427 -326 28 -58 31
-75 33 -166 0 -59 -5 -127 -14 -165 -49 -213 -185 -411 -388 -564 -212 -161
-311 -140 -436 90 -99 183 -105 192 -138 209 -31 16 -57 8 -88 -26 -165 -177
76 -637 421 -803 106 -51 185 -69 301 -69 148 1 244 33 425 142 393 237 662
582 765 982 45 177 62 396 41 530 -18 107 -80 266 -121 307 -8 8 -15 18 -15
22 0 4 -30 38 -67 75 -100 100 -243 191 -428 272 -44 20 -89 40 -100 45 -11 5
-105 42 -210 83 -438 171 -712 230 -1065 231 -761 0 -1237 -307 -1484 -959
-92 -242 -150 -483 -171 -706 -3 -36 -8 -85 -10 -110 -7 -61 -7 -304 -1 -366
3 -27 8 -78 11 -114 5 -55 15 -120 40 -267 21 -123 111 -409 176 -556 113
-256 279 -521 456 -726 96 -112 264 -275 372 -361 25 -19 49 -40 55 -45 23
-22 244 -184 316 -232 329 -218 663 -367 1011 -451 68 -17 140 -33 159 -35 19
-3 69 -10 110 -16 41 -6 102 -13 135 -16 68 -6 351 -6 405 -1 121 13 271 36
340 51 14 3 36 8 50 11 14 2 32 7 40 10 8 3 26 8 40 10 48 9 286 92 385 134
320 135 669 360 965 619 477 420 816 943 981 1511 35 118 85 340 93 412 3 26
10 79 16 116 29 204 31 622 5 812 -2 14 -6 45 -9 70 -3 25 -8 65 -11 90 -3 25
-13 83 -21 130 -9 47 -18 96 -20 110 -3 14 -16 75 -30 135 -129 566 -398 1178
-763 1740 -14 22 -29 42 -33 43 -5 2 -8 9 -8 16 0 27 -198 247 -361 401 -134
126 -150 140 -350 300 -9 7 -51 36 -93 65 -136 91 -233 127 -274 102z"/>
</g>
</svg>
